<svg width="56" height="59" viewBox="0 0 56 59" fill="none" xmlns="http://www.w3.org/2000/svg">
<path fill-rule="evenodd" clip-rule="evenodd" d="M1.93881 10.7678C2.07281 4.79876 0.551737 1.95879 6.48874 2.09479L6.49777 49.6408C4.19777 49.6828 3.76275 49.4508 1.97275 50.4748L1.93881 10.7678ZM8.3287 2.09576L44.0028 2.07977L44.0118 8.4588L45.8267 8.52582V0.261779C34.2497 0.191779 22.6448 0.243774 11.0658 0.256774C9.04676 0.256774 4.4127 -0.0571634 2.8027 0.670837C0.481702 1.71984 0.0628112 3.57077 0.0898112 6.65277C0.189811 18.3108 -0.146189 29.9377 0.0898112 41.3937L0.104704 54.4228C0.549704 59.5848 5.70478 58.7598 8.77878 58.7598H34.8568L34.8138 56.9717H8.09274C5.21174 56.9247 2.01679 57.3508 1.94479 54.1938C1.87379 51.0588 5.30074 51.4748 8.09274 51.4748C11.0457 51.4748 14.0618 51.4278 17.0068 51.4888C22.8998 51.6118 28.9398 51.4758 34.8508 51.4758V49.6428H8.33481V2.10174L8.3287 2.09576Z" fill="#07C4FF"/>
<path fill-rule="evenodd" clip-rule="evenodd" d="M38.5326 37.5375C40.3425 37.7933 42.1803 37.7808 43.9866 37.5006C44.0466 41.1356 44.0026 44.8315 43.9996 48.4755C43.9996 51.6985 44.9476 56.9026 41.2246 56.9416C37.5546 56.9806 38.5006 51.6166 38.5026 48.7036C38.5026 45.0036 38.5856 41.2335 38.5316 37.5375H38.5326ZM29.4136 25.1616C28.8446 14.3236 40.4466 8.07855 49.0266 15.0736C56.7676 21.3846 52.8626 35.0846 42.3546 35.8736C35.5836 36.3896 29.7356 31.2936 29.4136 25.1666V25.1616ZM27.9727 19.4615H20.2316L20.2136 21.2615L27.7756 21.2956L27.5096 23.0815L15.6356 23.1175L15.6497 24.9175L27.5496 24.9486L27.7836 26.7706L15.6626 26.7606L15.6206 28.6256L28.2006 28.6086L29.0316 30.3236L15.6406 30.4235L15.6466 32.2296L30.3286 32.2556C32.4956 35.5836 35.5227 36.2815 36.6287 37.0375C36.9107 40.8925 36.7396 46.0985 36.6786 50.0655C36.6346 52.8895 35.8976 58.7035 41.2356 58.7535C46.5736 58.8035 45.8306 52.8925 45.8446 50.2945C45.8676 45.9345 45.6757 41.3495 45.8687 37.0165C56.9317 32.0345 57.0516 20.4445 50.9856 14.2575C49.201 12.5881 47.0219 11.3989 44.6525 10.8011C42.283 10.2033 39.8006 10.2165 37.4376 10.8395C29.9226 13.0075 29.1986 18.8375 27.9736 19.4665L27.9727 19.4615Z" fill="#07C4FF"/>
<path fill-rule="evenodd" clip-rule="evenodd" d="M10.1455 47.8027L34.8585 47.8247L34.8325 45.9927L12.0236 45.9797L11.9895 5.74268H40.3285L40.3475 8.45776L42.1896 8.50671L42.1715 3.91467L10.1715 3.90674L10.1455 47.8027Z" fill="#07C4FF"/>
<path fill-rule="evenodd" clip-rule="evenodd" d="M39.7489 15.9838C41.8604 15.5615 44.0533 15.9939 45.8465 17.1862C47.6396 18.3784 48.8866 20.2333 49.314 22.3437C50.414 27.2437 46.775 31.2308 42.909 32.0858C32.349 34.4228 28.8489 17.9898 39.7489 15.9838ZM31.3009 25.6248C31.8299 30.4538 37.073 34.9248 42.763 34.0028C44.0733 33.8052 45.3316 33.3503 46.4655 32.6644C47.5993 31.9785 48.5863 31.0752 49.3697 30.0063C50.153 28.9375 50.7172 27.7242 51.0298 26.4364C51.3424 25.1486 51.3971 23.8118 51.1909 22.5028C49.3069 10.0288 29.768 11.6388 31.302 25.6238L31.3009 25.6248Z" fill="#07C4FF"/>
<path fill-rule="evenodd" clip-rule="evenodd" d="M4.66992 55.127L34.8939 55.1609L34.8169 53.313L4.68286 53.322L4.66992 55.127Z" fill="#07C4FF"/>
<path fill-rule="evenodd" clip-rule="evenodd" d="M40.3438 25.8488L42.1738 25.8617L42.1638 23.3378L42.1829 22.6527L42.1519 18.5527L40.3408 18.5747L40.3438 25.8488Z" fill="#07C4FF"/>
<path fill-rule="evenodd" clip-rule="evenodd" d="M40.29 48.7517L42.1641 48.7275L42.1909 46.9077L40.366 46.9197L40.29 48.7517Z" fill="#07C4FF"/>
<path fill-rule="evenodd" clip-rule="evenodd" d="M40.3276 29.5645L42.1538 29.5175L42.1907 27.6895L40.3477 27.7195L40.3276 29.5645Z" fill="#07C4FF"/>
<path fill-rule="evenodd" clip-rule="evenodd" d="M40.3379 41.3898L42.175 41.4479L42.1541 39.5889L40.3621 39.5999L40.3379 41.3898Z" fill="#07C4FF"/>
<path fill-rule="evenodd" clip-rule="evenodd" d="M40.3418 45.0476L42.1587 45.0786L42.1809 43.2417L40.3628 43.2598L40.3418 45.0476Z" fill="#07C4FF"/>
</svg>
